# AST/ASF file generated using VICON BodyLanguage
# -----------------------------------------------
:version 1.10
:name VICON
:units
  mass 1.0
  length 0.45
  angle deg
:documentation
   .ast/.asf automatically generated from VICON data using
   VICON BodyBuilder and BodyLanguage model FoxedUp or BRILLIANT.MOD
:root
   order TX TY TZ RX RY RZ
   axis XYZ
   position 0 0 0  
   orientation 0 0 0 
:bonedata
  begin
     id 1 
     name lhipjoint
     direction 0.643824 -0.71708 0.266994 
     length 2.52133 
     axis 0 0 0  XYZ
  end
  begin
     id 2 
     name lfemur
     direction 0.34202 -0.939693 0  
     length 7.51824  
     axis 0 0 20  XYZ
    dof rx ry rz
    limits (-160.0 20.0)
           (-70.0 70.0)
           (-60.0 70.0)
  end
  begin
     id 3 
     name ltibia
     direction 0.34202 -0.939693 0   
     length 7.3685   
     axis 0 0 20   XYZ
    dof rx
    limits (-10.0 170.0)
  end
  begin
     id 4 
     name lfoot
     direction 0.105419 -0.289636 0.951314   
     length 2.20972   
     axis -90 7.62852e-016 20   XYZ
    dof rx rz
    limits (-45.0 90.0)
           (-70.0 20.0)
  end
  begin
     id 5 
     name ltoes
     direction 1.53549e-011 -4.21833e-011 1   
     length 1.10139   
     axis -90 7.62852e-016 20   XYZ
    dof rx
    limits (-90.0 20.0)
  end
  begin
     id 6 
     name rhipjoint
     direction -0.608823 -0.743445 0.276811   
     length 2.43192  
     axis 0 0 0  XYZ 
  end
  begin
     id 7 
     name rfemur
     direction -0.34202 -0.939693 0   
     length 7.69715   
     axis 0 0 -20   XYZ
    dof rx ry rz
    limits (-160.0 20.0)
           (-70.0 70.0)
           (-70.0 60.0)
  end
  begin
     id 8 
     name rtibia
     direction -0.34202 -0.939693 0   
     length 7.44924   
     axis 0 0 -20   XYZ
    dof rx
    limits (-10.0 170.0)
 end
 begin
     id 9 
     name rfoot
     direction -0.103614 -0.284677 0.953007   
     length 2.22623  
     axis -90 -7.62852e-016 -20   XYZ
    dof rx rz
    limits (-45.0 90.0)
           (-20.0 70.0)
  end
  begin
     id 10 
     name rtoes
     direction -1.53537e-011 -4.22026e-011 1   
     length 1.11   
     axis -90 -7.62852e-016 -20   XYZ
    dof rx
    limits (-90.0 20.0)
  end
  begin
     id 11 
     name lowerback
     direction -0.0101212 0.99662 -0.0815298   
     length 2.08277   
     axis 0 0 0   XYZ
    dof rx ry rz
    limits (-20.0 45.0)
           (-30.0 30.0)
           (-30.0 30.0)
  end
  begin
     id 12 
     name upperback
     direction 0.024314 0.999591 -0.0150645   
     length 2.08524   
     axis 0 0 0   XYZ
    dof rx ry rz
    limits (-20.0 45.0)
           (-30.0 30.0)
           (-30.0 30.0)
  end
  begin
     id 13 
     name thorax
     direction 0.0285959 0.999323 0.0231357   
     length 2.09645   
     axis 0 0 0   XYZ
    dof rx ry rz
    limits (-20.0 45.0)
           (-30.0 30.0)
           (-30.0 30.0)
  end
  begin
     id 14 
     name lowerneck
     direction -0.065512 0.979301 0.191515   
     length 1.63798   
     axis 0 0 0   XYZ
    dof rx ry rz
    limits (-20.0 45.0)
           (-30.0 30.0)
           (-30.0 30.0)
  end
  begin
     id 15 
     name upperneck
     direction 0.0498479 0.98191 -0.182667   
     length 1.68731   
     axis 0 0 0   XYZ
    dof rx ry rz
    limits (-20.0 45.0)
           (-30.0 30.0)
           (-30.0 30.0)
  end
  begin
     id 16
     name head
     direction 0.0230358 0.996257 -0.0833175  
     length 1.69785  
     axis 0 0 0   XYZ
    dof rx ry rz
    limits (-20.0 45.0)
           (-30.0 30.0)
           (-30.0 30.0)
  end
  begin
     id 17 
     name lclavicle
     direction 0.967963 0.201165 -0.150269  
     length 3.63976  
     axis 0 0 0   XYZ
    dof ry rz
    limits (-20.0 10.0)
           (0.0 20.0)
  end
  begin
     id 18 
     name lhumerus
     direction 1 -4.48954e-011 -2.92837e-028   
     length 5.32462   
     axis 180 -30 -90   XYZ
    dof rx ry rz
    limits (-60.0 90.0)
           (-90.0 90.0)
           (-90.0 90.0)
  end
  begin
     id 19
     name lradius
     direction 1 -4.48958e-011 -6.39511e-027   
     length 3.48402   
     axis 180 -30 -90   XYZ
    dof rx
    limits (-10.0 170.0)
  end
  begin
     id 20
     name lwrist
     direction 1 -4.48975e-011 -1.1413e-026   
     length 1.74201   
     axis 6.88575e-015 90 90   XYZ
    dof ry
    limits (-180.0 0.0)
 end
  begin
     id 21 
     name lhand
     direction 1 -4.48899e-011 -2.28192e-026   
     length 0.572476   
     axis 1.45643e-014 90 90   XYZ
    dof rx rz
    limits (-90.0 90.0)
           (-45.0 45.0)
  end
  begin
     id 22 
     name lfingers
     direction 1 -4.49155e-011 -4.5684e-026   
     length 0.461545   
     axis 2.91283e-014 90 90   XYZ
    dof rx
    limits (0.0 90.0)
  end
  begin
     id 23
     name lthumb
     direction 0.707107 -6.34943e-011 0.707107   
     length 0.662688   
     axis -90 45 -2.25915e-014   XYZ
    dof rx rz
    limits (-45.0 45.0)
           (-45.0 45.0)
  end
  begin
     id 24 
     name rclavicle
     direction -0.964103 0.264019 -0.0282629   
     length 3.54491  
     axis 0 0 0   XYZ 
    dof ry rz
    limits (-10.0 20.0)
           (-20.0 0.0)
  end
  begin
     id 25 
     name rhumerus
     direction -1 -4.48964e-011 -2.45032e-027  
     length 5.33589   
     axis 180 30 90   XYZ
    dof rx ry rz
    limits (-90.0 60.0)
           (-90.0 90.0)
           (-90.0 90.0)
  end
  begin
     id 26 
     name rradius
     direction -1 -4.48987e-011 -1.55093e-027   
     length 3.64134   
     axis 180 30 90   XYZ
    dof rx
    limits (-10.0 170.0)
  end
  begin
     id 27 
     name rwrist
     direction -1 -4.4897e-011 -1.14128e-026   
     length 1.82067   
     axis 6.88575e-015 -90 -90   XYZ
    dof ry
    limits (-180.0 0.0)
  end
  begin
     id 28
     name rhand
     direction -1 -4.49021e-011 -2.28301e-026   
     length 0.734811   
     axis 1.45643e-014 -90 -90   XYZ
    dof rx rz
    limits (-90.0 90.0)
           (-45.0 45.0)
  end
  begin
     id 29
     name rfingers
     direction -1 -4.48862e-011 -4.56319e-026   
     length 0.592424   
     axis 2.91283e-014 -90 -90   XYZ
    dof rx
    limits (0.0 90.0)
  end
  begin
     id 30
     name rthumb
     direction -0.707107 -6.34978e-011 0.707107   
     length 0.850605   
     axis -90 -45 2.25915e-014   XYZ
    dof rx rz
    limits (-45.0 45.0)
           (-45.0 45.0)
  end
:hierarchy
  begin
    root lhipjoint rhipjoint lowerback
    lhipjoint lfemur
    lfemur ltibia
    ltibia lfoot
    lfoot ltoes
    rhipjoint rfemur
    rfemur rtibia
    rtibia rfoot
    rfoot rtoes
    lowerback upperback
    upperback thorax
    thorax lowerneck lclavicle rclavicle
    lowerneck upperneck
    upperneck head
    lclavicle lhumerus
    lhumerus lradius
    lradius lwrist
    lwrist lhand lthumb
    lhand lfingers
    rclavicle rhumerus
    rhumerus rradius
    rradius rwrist
    rwrist rhand rthumb
    rhand rfingers
  end

#!OML:ASF F:\VICON\USERDATA\INSTALL\rory3\rory3.ASF
:FULLY-SPECIFIED
:DEGREES
1
root -0.0806323 17.9917 -0.763246 2.85501 -11.0917 1.11688
lowerback -1.34694 -1.68494 -3.46792
upperback -0.408942 -2.21202 1.976
thorax 0.544612 -1.11288 3.93502
lowerneck -21.302 -2.70794 -9.85633
upperneck 28.0642 -1.82509 4.5518
head 13.1194 -1.26666 3.13108
rclavicle 4.54347e-014 -9.14409e-015
rhumerus -33.2925 -5.42926 -80.1098
rradius 30.7423
rwrist 20.4671
rhand -17.6781 8.55081
rfingers 7.12502
rthumb 8.58099 -21.2548
lclavicle 4.54347e-014 -9.14409e-015
lhumerus -24.0001 -24.4737 93.0167
lradius 82.9061
lwrist 2.29602
lhand -29.6283 21.2888
lfingers 7.12502
lthumb -2.95851 51.248
rfemur -8.5111 9.31096 15.1772
rtibia 24.9347
rfoot -16.0814 -3.35995
rtoes 4.04131
lfemur 1.04541 -2.03542 -21.6028
ltibia 10.8296
lfoot -10.3152 6.76874
ltoes -11.7784
2
root -0.0804218 17.994 -0.765803 2.91065 -10.9629 1.13911
lowerback -1.04528 -1.69626 -3.68847
upperback -0.749001 -2.23592 2.16369
thorax 0.0439653 -1.10787 4.2697
lowerneck -21.2366 -2.50941 -9.88147
upperneck 28.607 -1.46893 4.31818
head 13.2994 -1.16164 3.1179
rclavicle 3.97569e-016 -6.36111e-015
rhumerus -33.7327 -5.05012 -79.8398
rradius 30.8477
rwrist 20.3051
rhand -17.587 8.49536
rfingers 7.12502
rthumb 8.6689 -21.3066
lclavicle 3.97569e-016 -6.36111e-015
lhumerus -23.8005 -24.3189 93.2753
lradius 82.2579
lwrist 2.74577
lhand -29.5936 21.3043
lfingers 7.12502
lthumb -2.92494 51.264
rfemur -8.57681 9.22907 15.1567
rtibia 24.9596
rfoot -16.1069 -3.47137
rtoes 3.65701
lfemur 1.00914 -2.12178 -21.6153
ltibia 10.7316
lfoot -10.22 6.73319
ltoes -11.8443
3
root -0.0812224 17.9927 -0.767841 2.82981 -10.9553 1.17993
lowerback -1.33648 -1.67028 -3.50595
upperback -0.549253 -2.19273 1.9764
thorax 0.394148 -1.09759 3.96033
lowerneck -21.2638 -2.37628 -9.64163
upperneck 28.6568 -1.32967 4.22346
head 13.3091 -1.08814 3.0652
rclavicle -2.72956e-014 -1.27222e-014
rhumerus -33.4814 -5.327 -80.0584
rradius 30.8521
rwrist 20.4967
rhand -17.4445 8.38896
rfingers 7.12502
rthumb 8.80644 -21.4073
lclavicle -2.72956e-014 -1.27222e-014
lhumerus -22.7452 -24.5955 92.6281
lradius 81.5398
lwrist 3.4273
lhand -29.5829 21.4371
lfingers 7.12502
lthumb -2.91466 51.397
rfemur -8.50974 9.19799 15.1329
rtibia 25.0026
rfoot -16.143 -3.42146
rtoes 3.50298
lfemur 1.14073 -1.95656 -21.6345
ltibia 10.619
lfoot -10.1801 6.55555
ltoes -12.0173
4
root -0.0817449 17.9904 -0.769133 2.73486 -10.9863 1.26053
lowerback -1.49084 -1.62688 -3.47919
upperback -0.400872 -2.12928 1.87511
thorax 0.622319 -1.07297 3.83457
lowerneck -21.4519 -2.27554 -9.59006
upperneck 28.8485 -1.17575 4.20497
head 13.4144 -1.02154 3.08184
rclavicle -3.29237e-015 9.14409e-015
rhumerus -33.2113 -5.5383 -80.1405
rradius 30.765
rwrist 20.7007
rhand -17.4084 8.1712
rfingers 7.12502
rthumb 8.8413 -21.6236
lclavicle -3.29237e-015 9.14409e-015
lhumerus -21.7741 -24.7827 92.2089
lradius 80.7711
lwrist 3.73731
lhand -29.5795 21.8513
lfingers 7.12502
lthumb -2.91137 51.8112
rfemur -8.42633 9.1811 15.0541
rtibia 25.0299
rfoot -16.1218 -3.30973
rtoes 4.06685
lfemur 1.2878 -1.7908 -21.7072
ltibia 10.5062
lfoot -10.131 6.41682
ltoes -12.1328
5
root -0.0816782 17.9905 -0.77029 2.72926 -10.9865 1.25851
lowerback -1.5928 -1.59933 -3.40714
upperback -0.363373 -2.09023 1.84593
thorax 0.710733 -1.05565 3.76113
lowerneck -21.6312 -2.15439 -9.65821
upperneck 29.124 -0.963007 4.22938
head 13.5505 -0.939734 3.14905
rclavicle -1.10698e-014 7.95139e-016
rhumerus -33.0936 -5.60086 -80.1813
rradius 30.781
rwrist 20.7068
rhand -17.3647 7.90967
rfingers 7.12502
rthumb 8.88341 -21.8833
lclavicle -1.10698e-014 7.95139e-016
lhumerus -21.0277 -24.9997 91.9843
lradius 79.9127
lwrist 3.184
lhand -29.6964 22.1606
lfingers 7.12502
lthumb -3.02426 52.1189
rfemur -8.42607 9.1742 15.0563
rtibia 25.0343
rfoot -16.084 -3.28621
rtoes 4.19875
lfemur 1.29738 -1.76241 -21.7041
ltibia 10.4369
lfoot -10.0906 6.41288
ltoes -11.9881
